<svg width="32" height="32" viewBox="0 0 32 32" fill="none" xmlns="http://www.w3.org/2000/svg">
<path d="M16.0379 5.35117C14.8589 5.48165 12.0331 6.23952 9.70881 8.228C9.43762 8.46001 9.20152 8.7679 9.22381 9.12328C9.24389 9.44328 9.41599 9.74027 9.94802 9.72134C10.0676 9.71283 10.2961 9.68471 10.5063 9.62995C10.6933 9.58123 10.8528 9.46843 11.0012 9.34497C12.115 8.418 14.3718 6.81941 16.0379 6.59441C17.7904 6.29302 20.3499 5.80325 24.6241 8.81717C21.5074 5.44159 17.6013 5.10001 16.0379 5.35117Z" fill="black"/>
<path d="M16.0378 26.3732C17.2168 26.2427 20.0426 25.4848 22.3669 23.4964C22.6381 23.2644 22.8742 22.9565 22.8519 22.6011C22.8318 22.2811 22.6597 21.9841 22.1277 22.003C22.008 22.0115 21.7796 22.0397 21.5694 22.0944C21.3823 22.1431 21.2229 22.2559 21.0745 22.3794C19.9607 23.3064 17.7039 24.905 16.0378 25.13C14.2853 25.4314 11.7258 25.9211 7.45154 22.9072C10.5683 26.2828 14.4744 26.6244 16.0378 26.3732Z" fill="black"/>
<ellipse cx="29.844" cy="15.8603" rx="2.15603" ry="2.14741" fill="black"/>
<ellipse cx="16" cy="2.14741" rx="2.15603" ry="2.14741" fill="#125AAB"/>
<ellipse cx="16" cy="29.5742" rx="2.15603" ry="2.14741" fill="#125AAB"/>
<ellipse cx="2.15603" cy="15.8603" rx="2.15603" ry="2.14741" fill="black"/>
<path d="M22.279 10.5129C21.7494 9.64638 22.7329 8.47851 23.792 9.64635C24.8535 10.8169 26.3263 13.4138 26.4775 15.5612C26.5498 16.587 26.7423 18.7258 25.8345 20.4965C24.4245 23.2467 23.6785 23.8369 23.0355 24.4899C25.9102 20.2704 25.5235 17.734 25.305 16.4277C24.7754 13.2631 23.1111 11.6808 22.279 10.5129Z" fill="#125AAB"/>
<path d="M9.66497 21.2964C10.1945 22.1629 9.21106 23.3307 8.15197 22.1629C7.09042 20.9923 5.61769 18.3955 5.46642 16.2481C5.39416 15.2223 5.20161 13.0835 6.10944 11.3128C7.51945 8.5626 8.26544 7.97236 8.90847 7.31934C6.03376 11.5388 6.4204 14.0752 6.63899 15.3816C7.16852 18.5462 8.83282 20.1285 9.66497 21.2964Z" fill="#125AAB"/>
</svg>
